<svg fill="#000000" xmlns="http://www.w3.org/2000/svg"  viewBox="0 0 50 50" width="100px" height="100px"><path d="M 6 4 C 4.9069372 4 4 4.9069372 4 6 L 4 44 C 4 45.093063 4.9069372 46 6 46 L 44 46 C 45.093063 46 46 45.093063 46 44 L 46 6 C 46 4.9069372 45.093063 4 44 4 L 6 4 z M 6 6 L 44 6 L 44 44 L 6 44 L 6 6 z M 34.5 14 L 34.5 21.867188 L 34.5 21.875 C 33.893 20.564 32.823125 20 31.703125 20 C 29.303125 20 27 22.372 27 27.875 C 27 32.996 28.856469 36.3125 31.480469 36.3125 C 33.111469 36.3125 34.02 35.463 34.5 34.375 L 34.5 36 L 37 36 C 36.968 35.104 37 33.681 37 32.625 L 37 14 L 34.5 14 z M 13.035156 15 L 18.517578 25.5 L 13.035156 36 L 15.5 36 L 19.755859 27.873047 L 24 36 L 26.5 36 L 21 25.5 L 26.5 15 L 24 15 L 19.755859 23.126953 L 15.5 15 L 13.035156 15 z M 32.246094 22.111328 C 33.430094 22.111328 34.358328 23.525 34.486328 25.125 C 34.518328 25.476 34.486328 25.8685 34.486328 26.1875 L 34.486328 30.75 C 34.486328 30.75 34.457328 31.337 34.361328 31.625 C 33.817328 33.864 32.824641 34.263672 32.056641 34.263672 C 30.264641 34.263672 29.462891 31.139 29.462891 27.875 C 29.462891 24.772 30.198094 22.111328 32.246094 22.111328 z"/></svg>