<svg fill="#000000" xmlns="http://www.w3.org/2000/svg"  viewBox="0 0 64 64" width="128px" height="128px"><path d="M 45.515625 4.0019531 C 45.312483 4.0031509 45.110714 4.0187969 44.910156 4.0488281 C 44.107925 4.1689533 43.340075 4.5175772 42.710938 5.0800781 L 20.962891 24.152344 L 11.291016 16.455078 A 1.0001 1.0001 0 0 0 11.283203 16.447266 C 10.461147 15.808737 9.2715669 15.88273 8.5351562 16.619141 L 4.609375 20.544922 C 3.7792765 21.37502 3.8117556 22.764793 4.6796875 23.554688 L 12.914062 31.210938 L 4.7070312 38.40625 A 1.0001 1.0001 0 0 0 4.7050781 38.408203 C 3.816272 39.192332 3.7726808 40.600806 4.6113281 41.439453 L 8.5332031 45.361328 C 9.2614228 46.089548 10.433032 46.171789 11.255859 45.552734 L 11.259766 45.550781 L 20.712891 38.464844 L 42.695312 58.90625 A 1.0001 1.0001 0 0 0 42.708984 58.919922 C 43.967216 60.04619 45.781756 60.317578 47.314453 59.609375 A 1.0001 1.0001 0 0 0 47.349609 59.591797 L 57.822266 54.248047 C 59.159666 53.566026 60.005859 52.186992 60.005859 50.685547 L 60.005859 12.388672 C 60.005859 10.781782 59.037281 9.3243189 57.556641 8.7011719 L 47.314453 4.390625 C 46.739748 4.1255651 46.125052 3.9983597 45.515625 4.0019531 z M 45.847656 6.0214844 C 46.061778 6.0513676 46.273199 6.1132359 46.476562 6.2070312 A 1.0001 1.0001 0 0 0 46.507812 6.2207031 L 56.78125 10.544922 C 57.52461 10.857775 58.005859 11.581561 58.005859 12.388672 L 58.005859 50.685547 C 58.005859 51.438101 57.584663 52.124818 56.914062 52.466797 L 46.474609 57.792969 C 46.114195 57.959503 45.727396 58.007824 45.349609 57.976562 C 46.261239 57.302841 47.003906 56.005342 47.003906 54.013672 L 47.003906 10.015625 C 47.003906 8.0138768 46.257996 6.7086717 45.345703 6.0253906 C 45.512334 6.0110065 45.680392 5.9981407 45.847656 6.0214844 z M 43.265625 7.3574219 C 43.460461 7.3617563 43.714893 7.3923375 43.957031 7.5 C 44.441308 7.7153245 45.003906 8.1079986 45.003906 10.015625 L 45.003906 17.755859 L 28.482422 30.138672 L 22.552734 25.419922 L 43.140625 7.3632812 C 43.193031 7.3598927 43.191866 7.355781 43.265625 7.3574219 z M 53 13 C 52.448 13 52 13.448 52 14 C 52 14.552 52.448 15 53 15 L 55 15 C 55.552 15 56 14.552 56 14 C 56 13.448 55.552 13 55 13 L 53 13 z M 53 18 C 52.448 18 52 18.448 52 19 C 52 19.552 52.448 20 53 20 L 55 20 C 55.552 20 56 19.552 56 19 C 56 18.448 55.552 18 55 18 L 53 18 z M 10.054688 18.027344 L 45.003906 45.845703 L 45.003906 54.013672 C 45.003906 55.921298 44.449563 56.287644 43.972656 56.490234 C 43.643893 56.629894 43.350132 56.623773 43.158203 56.607422 L 6.0332031 22.082031 A 1.0001 1.0001 0 0 0 6.0253906 22.076172 C 5.9813236 22.036062 5.9815325 22.000882 6.0234375 21.958984 L 9.9492188 18.033203 C 9.9828077 17.999613 10.016729 17.997904 10.054688 18.027344 z M 45.003906 20.253906 L 45.003906 43.291016 L 30.099609 31.427734 L 45.003906 20.253906 z M 53 23 C 52.448 23 52 23.448 52 24 C 52 24.552 52.448 25 53 25 L 55 25 C 55.552 25 56 24.552 56 24 C 56 23.448 55.552 23 55 23 L 53 23 z M 53 28 C 52.448 28 52 28.448 52 29 C 52 29.552 52.448 30 53 30 L 55 30 C 55.552 30 56 29.552 56 29 C 56 28.448 55.552 28 55 28 L 53 28 z M 14.384766 32.580078 L 19.224609 37.080078 L 10.056641 43.953125 A 1.0001 1.0001 0 0 0 10.054688 43.955078 C 10.017698 43.983038 9.979971 43.979956 9.9472656 43.947266 L 6.0253906 40.025391 C 5.9820376 39.982041 5.9840989 39.948071 6.0292969 39.908203 L 14.384766 32.580078 z M 53 33 C 52.448 33 52 33.448 52 34 C 52 34.552 52.448 35 53 35 L 55 35 C 55.552 35 56 34.552 56 34 C 56 33.448 55.552 33 55 33 L 53 33 z M 53 38 C 52.448 38 52 38.448 52 39 C 52 39.552 52.448 40 53 40 L 55 40 C 55.552 40 56 39.552 56 39 C 56 38.448 55.552 38 55 38 L 53 38 z M 53 43 C 52.448 43 52 43.448 52 44 C 52 44.552 52.448 45 53 45 L 55 45 C 55.552 45 56 44.552 56 44 C 56 43.448 55.552 43 55 43 L 53 43 z M 53 48 C 52.448 48 52 48.448 52 49 C 52 49.552 52.448 50 53 50 L 55 50 C 55.552 50 56 49.552 56 49 C 56 48.448 55.552 48 55 48 L 53 48 z"/></svg>